<svg aria-hidden="true" style="width:0;height:0;position:absolute;overflow:hidden" xmlns="http://www.w3.org/2000/svg"><defs><symbol id="icon-close" viewBox="0 0 32 32"><path stroke-width="2.133" d="m8.533 8.533 14.933 14.933M8.533 23.467 23.466 8.534"/></symbol><symbol id="icon-film" viewBox="0 0 32 32"><path stroke-width="2.667" stroke-linecap="round" stroke-linejoin="round" d="M26.427 2.667H5.574a2.907 2.907 0 0 0-2.907 2.907v20.853a2.907 2.907 0 0 0 2.907 2.907h20.853a2.907 2.907 0 0 0 2.907-2.907V5.574a2.907 2.907 0 0 0-2.907-2.907zM9.333 2.667v26.667M22.667 2.667v26.667M2.667 16h26.667M2.667 9.333h6.667M2.667 22.667h6.667M22.667 22.667h6.667M22.667 9.333h6.667"/></symbol><symbol id="icon-heart" viewBox="0 0 34 32"><path fill="#ff6b08" style="fill:var(--color2,#ff6b08)" d="m17.231 31.705-2.412-2.412C5.859 21.367.001 16.025.001 9.478.001 4.136 4.136.001 9.478.001c2.929 0 5.858 1.378 7.754 3.618 1.895-2.24 4.825-3.618 7.754-3.618 5.342 0 9.477 4.135 9.477 9.477 0 6.548-5.858 11.889-14.818 19.815l-2.412 2.412z"/></symbol><symbol id="icon-search" viewBox="0 0 32 32"><path stroke-width="2.667" stroke-linecap="round" stroke-linejoin="round" d="M14.667 25.333c5.891 0 10.667-4.776 10.667-10.667S20.558 3.999 14.667 3.999 4 8.775 4 14.666s4.776 10.667 10.667 10.667zM28 28.001l-5.8-5.8"/></symbol><symbol id="icon-arrow-right" viewBox="0 0 32 32"><path stroke-width="2.667" stroke-linecap="round" stroke-linejoin="round" d="M6.667 16h18.667M16 25.333 25.333 16 16 6.667"/></symbol><symbol id="icon-arrow-left" viewBox="0 0 32 32"><path stroke-width="2.667" stroke-linecap="round" stroke-linejoin="round" d="M25.333 16H6.666M16 25.333 6.667 16 16 6.667"/></symbol><symbol id="icon-google" viewBox="0 0 32 32"><path fill="#4285f4" style="fill:var(--color1,#4285f4)" d="M30.08 16.333c0-1.04-.093-2.04-.267-3H16v5.68h7.893c-.347 1.827-1.387 3.373-2.947 4.413v3.693h4.76c2.773-2.56 4.373-6.32 4.373-10.787z"/><path fill="#34a853" style="fill:var(--color2,#34a853)" d="M16 30.667c3.96 0 7.28-1.307 9.707-3.547l-4.76-3.693c-1.307.88-2.973 1.413-4.947 1.413-3.813 0-7.053-2.573-8.213-6.04h-4.88v3.787c2.413 4.787 7.36 8.08 13.093 8.08z"/><path fill="#fbbc05" style="fill:var(--color3,#fbbc05)" d="M7.787 18.787c-.293-.88-.467-1.813-.467-2.787s.173-1.907.467-2.787V9.426h-4.88c-1 1.973-1.573 4.2-1.573 6.573s.573 4.6 1.573 6.573l3.8-2.96 1.08-.827z"/><path fill="#ea4335" style="fill:var(--color4,#ea4335)" d="M16 7.173c2.16 0 4.08.747 5.613 2.187l4.2-4.2C23.266 2.787 19.96 1.333 16 1.333c-5.733 0-10.68 3.293-13.093 8.093l4.88 3.787c1.16-3.467 4.4-6.04 8.213-6.04z"/></symbol></defs></svg>